<svg width="28" height="28" viewBox="0 0 28 28" fill="none" xmlns="http://www.w3.org/2000/svg">
<path d="M9.99443 23.7529L9.99458 23.753C11.1194 24.8354 12.5598 25.375 14.0001 25.375C15.4409 25.375 16.88 24.8351 17.992 23.7549L17.9941 23.7529C21.2988 20.5753 24.7809 15.6904 23.488 9.98763L9.99443 23.7529ZM9.99443 23.7529C6.69015 20.5757 3.20762 15.679 4.50061 9.97597L9.99443 23.7529ZM14.0001 2.62502C17.927 2.62502 22.3373 4.92531 23.4879 9.98735L4.50067 9.97568C5.65099 4.91491 10.0717 2.62502 13.9884 2.62502H13.9885H13.9886H13.9886H13.9887H13.9888H13.9889H13.9889H13.989H13.989H13.9891H13.9892H13.9892H13.9893H13.9894H13.9894H13.9895H13.9896H13.9896H13.9897H13.9898H13.9898H13.9899H13.9899H13.99H13.9901H13.9901H13.9902H13.9903H13.9903H13.9904H13.9904H13.9905H13.9906H13.9906H13.9907H13.9907H13.9908H13.9909H13.9909H13.991H13.991H13.9911H13.9911H13.9912H13.9913H13.9913H13.9914H13.9914H13.9915H13.9915H13.9916H13.9917H13.9917H13.9918H13.9918H13.9919H13.9919H13.992H13.992H13.9921H13.9921H13.9922H13.9922H13.9923H13.9923H13.9924H13.9925H13.9925H13.9926H13.9926H13.9927H13.9927H13.9928H13.9928H13.9929H13.9929H13.993H13.993H13.9931H13.9931H13.9932H13.9932H13.9932H13.9933H13.9933H13.9934H13.9934H13.9935H13.9935H13.9936H13.9936H13.9937H13.9937H13.9938H13.9938H13.9939H13.9939H13.9939H13.994H13.994H13.9941H13.9941H13.9942H13.9942H13.9943H13.9943H13.9943H13.9944H13.9944H13.9945H13.9945H13.9945H13.9946H13.9946H13.9947H13.9947H13.9948H13.9948H13.9948H13.9949H13.9949H13.995H13.995H13.995H13.9951H13.9951H13.9952H13.9952H13.9952H13.9953H13.9953H13.9953H13.9954H13.9954H13.9955H13.9955H13.9955H13.9956H13.9956H13.9956H13.9957H13.9957H13.9957H13.9958H13.9958H13.9958H13.9959H13.9959H13.996H13.996H13.996H13.9961H13.9961H13.9961H13.9962H13.9962H13.9962H13.9963H13.9963H13.9963H13.9964H13.9964H13.9964H13.9964H13.9965H13.9965H13.9965H13.9966H13.9966H13.9966H13.9967H13.9967H13.9967H13.9968H13.9968H13.9968H13.9968H13.9969H13.9969H13.9969H13.997H13.997H13.997H13.997H13.9971H13.9971H13.9971H13.9972H13.9972H13.9972H13.9972H13.9973H13.9973H13.9973H13.9973H13.9974H13.9974H13.9974H13.9974H13.9975H13.9975H13.9975H13.9975H13.9976H13.9976H13.9976H13.9976H13.9977H13.9977H13.9977H13.9977H13.9978H13.9978H13.9978H13.9978H13.9979H13.9979H13.9979H13.9979H13.9979H13.998H13.998H13.998H13.998H13.9981H13.9981H13.9981H13.9981H13.9981H13.9982H13.9982H13.9982H13.9982H13.9982H13.9983H13.9983H13.9983H13.9983H13.9983H13.9984H13.9984H13.9984H13.9984H13.9984H13.9985H13.9985H13.9985H13.9985H13.9985H13.9985H13.9986H13.9986H13.9986H13.9986H13.9986H13.9987H13.9987H13.9987H13.9987H13.9987H13.9987H13.9988H13.9988H13.9988H13.9988H13.9988H13.9988H13.9988H13.9989H13.9989H13.9989H13.9989H13.9989H13.9989H13.999H13.999H13.999H13.999H13.999H13.999H13.999H13.9991H13.9991H13.9991H13.9991H13.9991H13.9991H13.9991H13.9991H13.9992H13.9992H13.9992H13.9992H13.9992H13.9992H13.9992H13.9992H13.9993H13.9993H13.9993H13.9993H13.9993H13.9993H13.9993H13.9993H13.9994H13.9994H13.9994H13.9994H13.9994H13.9994H13.9994H13.9994H13.9994H13.9994H13.9995H13.9995H13.9995H13.9995H13.9995H13.9995H13.9995H13.9995H13.9995H13.9995H13.9996H13.9996H13.9996H13.9996H13.9996H13.9996H13.9996H13.9996H13.9996H13.9996H13.9996H13.9996H13.9997H13.9997H13.9997H13.9997H13.9997H13.9997H13.9997H13.9997H13.9997H13.9997H13.9998H13.9998H13.9998H13.9998H13.9998H13.9998H13.9998H13.9998H13.9999H13.9999H13.9999H13.9999H13.9999H13.9999H13.9999H13.9999H13.9999H13.9999H14H14H14H14H14H14H14H14H14H14H14H14H14.0001H14.0001H14.0001H14.0001H14.0001H14.0001H14.0001ZM9.74178 12.0284C9.74178 14.3805 11.6479 16.2867 14.0001 16.2867C16.3523 16.2867 18.2584 14.3805 18.2584 12.0284C18.2584 9.67619 16.3523 7.77002 14.0001 7.77002C11.6479 7.77002 9.74178 9.67619 9.74178 12.0284Z" fill="#F15C61" stroke="#F15C61" stroke-width="1.16667"/>
</svg>
