<svg width="30" height="29" viewBox="0 0 30 29" fill="none" xmlns="http://www.w3.org/2000/svg">
<g clip-path="url(#clip0_6_99)">
<path d="M1.65759 17.9953C1.65759 16.677 1.91725 15.3715 2.42178 14.1535C2.92631 12.9355 3.66578 11.8288 4.59801 10.8966C5.53024 9.96434 6.63692 9.22485 7.85492 8.72032C9.07298 8.21585 10.3784 7.95615 11.6968 7.95615V17.9953H1.65759Z" fill="#3C71FD"/>
<path d="M1.65759 17.9953C1.65759 19.3137 1.91725 20.6192 2.42178 21.8372C2.92631 23.0552 3.66578 24.1619 4.59801 25.0941C5.53024 26.0264 6.63692 26.7659 7.85492 27.2704C9.07298 27.7749 10.3784 28.0345 11.6968 28.0345V17.9953H1.65759Z" fill="#638EFF"/>
<path d="M21.7358 17.9953C21.7358 19.3137 21.4764 20.6192 20.9719 21.8372C20.4674 23.0552 19.7279 24.1619 18.7955 25.0941C17.8633 26.0264 16.7566 26.7659 15.5386 27.2704C14.3206 27.7749 13.0151 28.0345 11.6968 28.0345V17.9953H21.7358Z" fill="#ACC3FF"/>
<path d="M27.9258 9.32238C27.9258 13.4854 24.5508 16.8602 20.3879 16.8602H12.8501V9.32238C12.8501 5.15936 16.2249 1.78455 20.3879 1.78455C24.5508 1.78455 27.9258 5.15936 27.9258 9.32238Z" fill="#FF7917"/>
</g>
<defs>
<clipPath id="clip0_6_99">
<rect width="28.5833" height="28" fill="white" transform="translate(0.5 0.909546)"/>
</clipPath>
</defs>
</svg>
