<svg width="232" height="478" viewBox="0 0 232 478" fill="none" xmlns="http://www.w3.org/2000/svg">
<path d="M196.245 226.951C196.809 211.889 194.29 187.198 189.685 176.322C185.08 165.446 189.397 149.544 184.936 133.224C180.475 116.903 183.624 114.961 178.927 97.6691C174.23 80.3773 163.184 78.8423 154.813 75.3655C146.443 71.8888 141.011 67.6905 135.134 64.2006C133.483 63.2859 132.123 61.9242 131.211 60.2719C130.299 58.6197 129.872 56.7437 129.978 54.8594C132.483 53.7442 134.018 49.4278 133.913 46.9089C134.058 44.486 134.53 42.0939 135.317 39.798C136.708 40.6376 138.099 39.3781 138.243 37.4233C138.387 35.4684 140.054 31.2964 139.922 29.6171C139.791 27.9377 137.548 28.7774 137.548 28.7774C137.548 28.7774 137.403 21.391 137.548 16.6548C137.692 11.9185 135.763 8.54677 129.768 3.94175C124.244 -0.295923 117.094 0.00583099 115.992 0.00583099C114.89 0.00583099 107.727 -0.322162 102.203 3.94175C96.2074 8.54677 94.3313 11.8923 94.3969 16.6416C94.4625 21.391 94.3969 28.7643 94.3969 28.7643C94.3969 28.7643 92.1665 27.9377 92.0222 29.6039C91.8779 31.2701 93.5572 35.4684 93.7015 37.4102C93.8459 39.3519 95.2366 40.6245 96.6272 39.7848C97.4145 42.0808 97.8867 44.4729 98.031 46.8957C97.8867 49.4147 99.4217 53.7311 101.967 54.8463C102.073 56.7306 101.645 58.6065 100.733 60.2588C99.8211 61.9111 98.4617 63.2728 96.8109 64.1875C90.9464 67.6774 85.5148 71.8626 77.1313 75.3524C68.7478 78.8423 57.7666 80.3773 53.0173 97.6559C48.2679 114.935 51.4692 116.903 47.0085 133.21C42.5477 149.518 46.8641 165.432 42.2591 176.309C37.6541 187.185 35.1482 211.876 35.6993 226.938C36.2503 241.999 33.0753 252.731 35.6205 259.015C38.1658 265.3 52.991 283.838 54.8016 280.348C56.6121 276.858 51.456 277.147 48.386 270.167C45.316 263.188 43.1381 255.945 45.7621 255.25C48.386 254.555 50.2228 264.736 52.1776 265.287C54.1325 265.838 54.6966 262.217 53.8569 257.061C53.0173 251.905 54.408 245.62 52.0464 241.317C49.6849 237.014 48.1105 232.382 52.0464 226.111C55.9823 219.84 63.7361 188.287 64.1297 178.132C64.5233 167.978 72.7756 142.434 72.7756 142.434C72.7756 142.434 77.9447 180.232 75.9899 204.359C74.0351 228.486 66.8061 253.584 70.1254 266.69C73.4447 279.797 79.8996 330.977 79.7553 337.537C79.611 344.097 74.3106 376.437 78.9156 392.64C83.5206 408.843 93.8459 438.559 93.9771 447.31C94.1083 456.061 94.2657 459.577 90.907 461.951C87.5484 464.326 78.076 467.199 79.3354 472.447C80.5949 477.695 101.377 479.978 105.575 475.937C107.626 473.92 109.145 471.427 109.996 468.679C110.848 465.932 111.006 463.016 110.455 460.193C109.34 454.473 111.426 451.954 109.471 446.103C107.517 440.251 106.69 427.276 107.097 420.441C107.503 413.605 111.151 390.449 109.721 379.861C108.291 369.274 104.289 348.754 106.375 341.224C108.461 333.693 111.256 313.331 112.66 297.01C113.814 283.431 115.454 258.386 115.979 250.356C116.491 258.386 118.13 283.431 119.285 297.01C120.689 313.331 123.47 333.745 125.569 341.224C127.669 348.702 123.615 369.26 122.224 379.861C120.833 390.462 124.454 413.605 124.848 420.441C125.241 427.276 124.428 440.238 122.473 446.103C120.518 451.967 122.604 454.473 121.489 460.193C120.939 463.016 121.097 465.932 121.948 468.679C122.8 471.427 124.319 473.92 126.37 475.937C130.555 479.978 151.297 477.603 152.609 472.447C153.921 467.291 144.383 464.352 141.037 461.951C137.692 459.55 137.823 456.087 137.967 447.31C138.112 438.533 148.463 408.816 153.029 392.64C157.595 376.463 152.334 344.097 152.189 337.537C152.045 330.977 158.46 279.81 161.819 266.69C165.178 253.571 157.883 228.486 155.955 204.359C154.026 180.232 159.169 142.434 159.169 142.434C159.169 142.434 167.395 167.951 167.815 178.132C168.235 188.313 176.041 219.84 179.937 226.111C183.834 232.382 182.312 236.987 179.937 241.317C177.563 245.646 178.967 251.918 178.127 257.061C177.287 262.204 177.851 265.851 179.806 265.287C181.761 264.723 183.572 254.555 186.222 255.25C188.872 255.945 186.642 263.201 183.598 270.167C180.554 277.134 175.372 276.858 177.182 280.348C178.993 283.838 193.779 265.287 196.363 259.015C198.948 252.744 195.734 242.078 196.245 226.951Z" fill="#92D6FF"/>
<path d="M73.8257 130.652L75.387 142.08C75.5969 143.628 80.5561 180.429 78.6013 204.569C77.8666 213.648 76.4234 222.7 75.0196 231.451C72.8024 245.279 70.7032 258.347 72.6712 266.048C76.0561 279.312 82.5241 330.492 82.3798 337.603C82.3798 339.217 82.0518 341.998 81.6451 345.868C80.3331 357.768 78.0371 379.98 81.4483 391.919C82.7602 396.589 84.5839 402.414 86.4994 408.554C91.4193 424.298 96.4966 440.658 96.6015 447.258V447.887C96.7459 456.599 96.8115 461.007 92.4164 464.09C91.2196 464.871 89.9752 465.577 88.6904 466.202C85.9746 467.593 81.422 469.928 81.8681 471.792C82.1436 472.316 84.492 473.825 89.8711 474.743C96.7721 475.911 102.584 475.098 103.712 474.009C105.453 472.296 106.741 470.178 107.462 467.845C108.183 465.512 108.315 463.036 107.845 460.64C107.419 458.329 107.33 455.969 107.583 453.634C107.894 451.363 107.678 449.051 106.953 446.877C104.801 440.317 104.04 426.988 104.46 420.231C104.578 418.302 104.919 415.285 105.366 411.467C106.454 401.942 108.094 387.537 107.124 380.15C106.835 377.92 106.415 375.178 105.969 372.278C104.224 360.982 102.033 346.931 103.857 340.463C105.798 333.431 108.58 313.804 110.036 296.722C111.164 283.602 112.66 259.764 113.355 250.121H118.603C119.089 257.586 120.742 283.012 121.923 296.722C123.379 313.778 126.16 333.457 128.102 340.463C129.899 346.931 127.735 360.982 125.99 372.278C125.544 375.165 125.124 377.907 124.835 380.15C123.864 387.537 125.504 401.942 126.593 411.467C127.039 415.285 127.38 418.302 127.498 420.231C127.918 426.988 127.157 440.383 125.006 446.877C124.28 449.051 124.065 451.363 124.376 453.634C124.629 455.969 124.54 458.329 124.114 460.64C123.645 463.035 123.775 465.509 124.494 467.842C125.213 470.174 126.497 472.293 128.233 474.009C129.375 475.111 135.187 475.911 142.075 474.743C147.467 473.825 149.815 472.316 150.104 471.726C150.537 469.929 145.984 467.593 143.268 466.202C141.984 465.577 140.739 464.871 139.542 464.09C135.147 460.981 135.213 456.599 135.357 447.887V447.258C135.462 440.698 140.605 424.337 145.459 408.568C147.375 402.401 149.185 396.589 150.51 391.919C153.922 379.927 151.573 357.807 150.314 345.855C149.907 341.998 149.618 339.217 149.579 337.603C149.435 330.492 155.89 279.325 159.288 266.048C161.256 258.347 159.156 245.279 156.939 231.451C155.535 222.7 154.092 213.648 153.357 204.569C151.403 180.429 156.362 143.628 156.572 142.08L158.133 130.652L161.675 141.634C162.016 142.683 170.02 167.611 170.439 178.028C170.859 188.051 178.652 219.04 182.181 224.721C186.8 232.147 184.805 237.919 182.26 242.577C181.093 244.702 181.093 247.825 181.079 251.013C181.136 253.179 181.022 255.346 180.738 257.494C180.738 257.691 180.673 257.888 180.646 258.084C181.958 254.936 183.756 251.892 186.905 252.718C187.476 252.86 188.008 253.128 188.462 253.503C188.917 253.877 189.281 254.349 189.529 254.883C190.014 255.893 191.221 258.412 187.272 268.291C189.871 265.126 192.114 261.686 193.963 258.032C195.196 255.041 194.803 250.265 194.317 244.23C193.727 238.46 193.495 232.658 193.622 226.859C194.186 211.89 191.588 187.5 187.272 177.359C184.753 171.389 184.648 164.239 184.648 156.629C184.648 149.282 184.543 141.686 182.418 133.932C180.786 128.163 179.792 122.233 179.453 116.247C179.119 110.194 178.098 104.199 176.409 98.3779C172.683 84.7859 164.982 81.952 157.543 79.2231C156.231 78.7508 155.011 78.2916 153.817 77.7799C148.469 75.4599 143.348 72.649 138.519 69.3833C136.905 68.3468 135.383 67.376 133.822 66.4445C131.732 65.2753 130.018 63.5356 128.879 61.4285C127.741 59.3214 127.226 56.9339 127.394 54.5449L127.577 53.0624L128.889 52.4457C130.017 51.9472 131.343 48.9165 131.238 47.0404C131.342 44.286 131.855 41.5623 132.759 38.9587L133.796 35.8493L135.593 36.9251C135.787 35.6445 136.081 34.3811 136.472 33.1466C136.577 32.7661 136.709 32.2938 136.827 31.8346L134.937 32.5431L134.859 28.8302C134.859 28.5285 134.714 21.3257 134.859 16.5764C134.964 13.1915 133.901 10.5151 128.076 6.08063C123.261 2.38087 116.78 2.6695 116.058 2.70886H115.73C115.009 2.70886 108.527 2.38087 103.712 6.08063C97.8873 10.5545 96.8246 13.2309 96.9295 16.5764C97.0739 21.3257 96.9295 28.5285 96.9295 28.8302L96.8508 32.5431L94.9616 31.8346C95.0797 32.307 95.2109 32.7793 95.3158 33.1466C95.7076 34.3811 96.0015 35.6445 96.1948 36.9251L97.9922 35.8493L99.0287 38.9587C99.9336 41.5623 100.447 44.286 100.551 47.0404C100.446 48.9165 101.771 51.9472 102.899 52.4457L104.211 53.0624L104.395 54.5449C104.563 56.9339 104.047 59.3214 102.909 61.4285C101.77 63.5356 100.056 65.2753 97.966 66.4445C96.4047 67.376 94.8829 68.3468 93.2691 69.3833C88.5039 72.636 83.4489 75.4424 78.1683 77.7668C76.9744 78.2785 75.7149 78.7377 74.4423 79.21C67.0035 81.9389 59.3022 84.7727 55.5762 98.3648C53.8867 104.186 52.8655 110.181 52.5324 116.234C52.193 122.22 51.1987 128.15 49.5673 133.919C47.4419 141.673 47.3895 149.269 47.337 156.616C47.337 164.2 47.232 171.376 44.713 177.346C40.3967 187.526 37.799 211.877 38.3631 226.859C38.5053 232.657 38.295 238.458 37.7333 244.23C37.2479 250.265 36.8543 255.041 38.0876 258.032C39.9361 261.686 42.1799 265.126 44.7786 268.291C40.8427 258.412 42.0366 255.893 42.5221 254.883C42.7697 254.349 43.134 253.877 43.5881 253.503C44.0422 253.128 44.5746 252.86 45.146 252.718C48.2947 251.892 50.0659 254.936 51.4041 258.071C51.4041 257.888 51.4041 257.691 51.3123 257.494C51.0283 255.346 50.9142 253.179 50.9712 251.013C50.9712 247.772 50.9711 244.702 49.7904 242.577C47.1664 237.919 45.2509 232.147 49.8691 224.721C53.3983 219.04 61.1914 187.986 61.6112 178.028C62.0311 167.611 70.0341 142.683 70.3752 141.634L73.8257 130.652Z" fill="#009EFB"/>
<g style="mix-blend-mode:hard-light" opacity="0.15">
<path d="M92.9277 322.856C89.3566 322.858 85.865 321.802 82.8945 319.82C79.9241 317.838 77.6082 315.019 76.2398 311.721C74.8714 308.422 74.512 304.792 75.2071 301.289C75.9022 297.786 77.6205 294.568 80.1447 292.042C82.6689 289.516 85.8856 287.796 89.3878 287.098C92.8901 286.4 96.5205 286.757 99.82 288.123C103.119 289.489 105.94 291.803 107.924 294.772C109.908 297.741 110.967 301.232 110.967 304.803C110.964 309.588 109.063 314.175 105.681 317.56C102.299 320.944 97.7122 322.849 92.9277 322.856ZM92.9277 287.734C89.5544 287.734 86.2569 288.735 83.4521 290.609C80.6473 292.483 78.4612 295.146 77.1703 298.263C75.8794 301.379 75.5417 304.809 76.1998 308.117C76.8578 311.426 78.4823 314.465 80.8675 316.85C83.2528 319.235 86.2918 320.86 89.6003 321.518C92.9087 322.176 96.3381 321.838 99.4546 320.547C102.571 319.256 105.235 317.07 107.109 314.265C108.983 311.461 109.983 308.163 109.983 304.79C109.983 300.266 108.186 295.928 104.988 292.73C101.789 289.531 97.4511 287.734 92.9277 287.734Z" fill="#009EFB"/>
</g>
<g style="mix-blend-mode:hard-light" opacity="0.4">
<path d="M92.9274 319.812C89.9589 319.812 87.0571 318.932 84.5889 317.283C82.1207 315.633 80.1969 313.289 79.061 310.547C77.925 307.804 77.6277 304.787 78.2069 301.875C78.786 298.964 80.2155 296.289 82.3145 294.19C84.4135 292.091 87.0879 290.662 89.9993 290.083C92.9108 289.503 95.9286 289.801 98.6711 290.937C101.414 292.073 103.758 293.996 105.407 296.465C107.056 298.933 107.936 301.835 107.936 304.803C107.933 308.783 106.351 312.598 103.537 315.412C100.723 318.226 96.907 319.809 92.9274 319.812ZM92.9274 290.778C90.1535 290.778 87.442 291.601 85.1356 293.142C82.8292 294.683 81.0316 296.873 79.97 299.436C78.9085 301.999 78.6308 304.819 79.1719 307.539C79.7131 310.26 81.0488 312.759 83.0103 314.72C84.9717 316.682 87.4707 318.018 90.1913 318.559C92.9119 319.1 95.7318 318.822 98.2945 317.761C100.857 316.699 103.048 314.901 104.589 312.595C106.13 310.289 106.952 307.577 106.952 304.803C106.949 301.085 105.47 297.519 102.841 294.89C100.211 292.26 96.646 290.782 92.9274 290.778Z" fill="#009EFB"/>
</g>
<g style="mix-blend-mode:hard-light" opacity="0.8">
<path d="M92.928 317.031C90.509 317.034 88.1437 316.319 86.1311 314.977C84.1186 313.635 82.5493 311.726 81.6218 309.492C80.6943 307.258 80.4503 304.799 80.9206 302.426C81.3909 300.053 82.5545 297.873 84.264 296.162C85.9735 294.451 88.1522 293.285 90.5245 292.812C92.8968 292.339 95.356 292.58 97.5911 293.505C99.8262 294.431 101.737 295.998 103.081 298.009C104.425 300.02 105.142 302.385 105.142 304.804C105.139 308.043 103.851 311.149 101.562 313.441C99.2723 315.733 96.1676 317.024 92.928 317.031ZM92.928 293.573C90.7031 293.57 88.5274 294.228 86.6764 295.462C84.8254 296.697 83.3822 298.453 82.5296 300.508C81.677 302.563 81.4532 304.825 81.8866 307.007C82.3201 309.189 83.3912 311.194 84.9644 312.767C86.5377 314.34 88.5423 315.411 90.7245 315.845C92.9068 316.278 95.1686 316.054 97.2236 315.202C99.2787 314.349 101.035 312.906 102.269 311.055C103.503 309.204 104.161 307.028 104.158 304.804C104.155 301.826 102.971 298.972 100.865 296.866C98.7599 294.761 95.9054 293.577 92.928 293.573Z" fill="#009EFB"/>
</g>
<path d="M100.275 304.803C100.275 306.256 99.8438 307.677 99.0365 308.885C98.2292 310.093 97.0817 311.035 95.7392 311.591C94.3967 312.147 92.9195 312.293 91.4943 312.009C90.0691 311.726 88.76 311.026 87.7325 309.998C86.705 308.971 86.0052 307.662 85.7217 306.237C85.4383 304.811 85.5838 303.334 86.1398 301.992C86.6959 300.649 87.6376 299.502 88.8458 298.694C90.054 297.887 91.4745 297.456 92.9276 297.456C94.8762 297.456 96.7449 298.23 98.1228 299.608C99.5006 300.986 100.275 302.855 100.275 304.803Z" fill="url(#paint0_linear_81_2653)"/>
<path d="M92.9277 295.226C91.0335 295.226 89.1818 295.788 87.6068 296.84C86.0318 297.893 84.8043 299.388 84.0794 301.138C83.3545 302.888 83.1648 304.814 83.5344 306.672C83.9039 308.53 84.8161 310.236 86.1555 311.576C87.4949 312.915 89.2014 313.827 91.0593 314.197C92.9171 314.566 94.8428 314.377 96.5929 313.652C98.3429 312.927 99.8387 311.699 100.891 310.124C101.943 308.549 102.505 306.698 102.505 304.803C102.505 302.263 101.496 299.827 99.7 298.031C97.9039 296.235 95.4678 295.226 92.9277 295.226ZM92.9277 313.449C91.2177 313.449 89.5461 312.942 88.1243 311.992C86.7025 311.042 85.5944 309.692 84.94 308.112C84.2856 306.532 84.1144 304.794 84.448 303.117C84.7816 301.44 85.605 299.899 86.8142 298.69C88.0233 297.481 89.5639 296.657 91.241 296.324C92.9181 295.99 94.6565 296.161 96.2364 296.816C97.8162 297.47 99.1665 298.578 100.117 300C101.067 301.422 101.574 303.093 101.574 304.803C101.57 307.095 100.658 309.293 99.0375 310.913C97.4168 312.534 95.2197 313.446 92.9277 313.449Z" fill="url(#paint1_linear_81_2653)"/>
<path d="M93.1623 308.237H91.6015L91.6114 307.164H93.1623C93.5831 307.164 93.936 307.071 94.221 306.885C94.506 306.696 94.7214 306.426 94.8672 306.075C95.013 305.721 95.0859 305.296 95.0859 304.803V304.43C95.0859 304.049 95.0445 303.712 94.9617 303.421C94.8788 303.129 94.7562 302.884 94.5938 302.685C94.4348 302.486 94.2376 302.335 94.0023 302.233C93.767 302.13 93.497 302.079 93.1921 302.079H91.5716V301H93.1921C93.6759 301 94.1166 301.081 94.5143 301.244C94.9153 301.406 95.2615 301.64 95.5532 301.944C95.8481 302.246 96.0734 302.607 96.2292 303.028C96.3882 303.449 96.4678 303.919 96.4678 304.44V304.803C96.4678 305.32 96.3882 305.79 96.2292 306.214C96.0734 306.635 95.8481 306.996 95.5532 307.298C95.2615 307.599 94.9136 307.831 94.5093 307.994C94.105 308.156 93.656 308.237 93.1623 308.237ZM92.3669 301V308.237H91V301H92.3669Z" fill="white"/>
<g style="mix-blend-mode:hard-light" opacity="0.15">
<path d="M115.992 226.334C112.42 226.337 108.928 225.28 105.957 223.297C102.986 221.314 100.67 218.495 99.3025 215.196C97.9345 211.897 97.5759 208.266 98.272 204.763C98.9682 201.259 100.688 198.042 103.213 195.516C105.739 192.991 108.957 191.271 112.46 190.575C115.963 189.879 119.594 190.237 122.893 191.605C126.192 192.973 129.012 195.289 130.994 198.26C132.977 201.231 134.034 204.723 134.031 208.294C134.024 213.077 132.121 217.661 128.74 221.043C125.358 224.424 120.774 226.327 115.992 226.334ZM115.992 191.226C112.618 191.226 109.321 192.226 106.516 194.1C103.711 195.974 101.525 198.638 100.234 201.754C98.9434 204.871 98.6056 208.3 99.2637 211.609C99.9218 214.917 101.546 217.956 103.931 220.341C106.317 222.727 109.356 224.351 112.664 225.009C115.973 225.667 119.402 225.33 122.519 224.039C125.635 222.748 128.299 220.562 130.173 217.757C132.047 214.952 133.047 211.655 133.047 208.281C133.051 206.039 132.612 203.819 131.757 201.746C130.901 199.674 129.645 197.791 128.061 196.204C126.477 194.618 124.596 193.359 122.525 192.5C120.454 191.641 118.234 191.199 115.992 191.199V191.226Z" fill="#009EFB"/>
</g>
<g style="mix-blend-mode:hard-light" opacity="0.4">
<path d="M115.992 223.264C113.023 223.267 110.119 222.388 107.649 220.74C105.179 219.092 103.253 216.748 102.115 214.005C100.978 211.262 100.679 208.243 101.258 205.33C101.837 202.417 103.266 199.742 105.366 197.642C107.466 195.542 110.142 194.113 113.054 193.534C115.967 192.955 118.986 193.253 121.729 194.391C124.472 195.529 126.816 197.454 128.464 199.925C130.112 202.395 130.991 205.299 130.988 208.268C130.981 212.243 129.399 216.053 126.588 218.864C123.778 221.675 119.967 223.257 115.992 223.264ZM115.992 194.243C113.218 194.241 110.505 195.061 108.197 196.6C105.889 198.14 104.089 200.329 103.026 202.892C101.962 205.454 101.682 208.275 102.222 210.996C102.762 213.718 104.096 216.218 106.057 218.181C108.018 220.143 110.517 221.48 113.238 222.023C115.959 222.565 118.78 222.288 121.343 221.227C123.907 220.166 126.098 218.368 127.64 216.061C129.181 213.755 130.004 211.043 130.004 208.268C130.001 204.552 128.524 200.989 125.897 198.359C123.271 195.73 119.709 194.25 115.992 194.243Z" fill="#009EFB"/>
</g>
<g style="mix-blend-mode:hard-light" opacity="0.8">
<path d="M115.991 220.483C113.572 220.486 111.206 219.77 109.193 218.428C107.18 217.085 105.611 215.176 104.684 212.941C103.757 210.706 103.514 208.246 103.985 205.873C104.456 203.5 105.621 201.32 107.332 199.609C109.043 197.898 111.223 196.734 113.596 196.262C115.969 195.791 118.429 196.034 120.664 196.961C122.899 197.888 124.808 199.457 126.151 201.47C127.493 203.483 128.208 205.849 128.206 208.269C128.199 211.506 126.91 214.609 124.621 216.898C122.332 219.187 119.229 220.476 115.991 220.483ZM115.991 197.025C113.767 197.022 111.592 197.68 109.741 198.913C107.891 200.147 106.447 201.902 105.594 203.957C104.741 206.011 104.517 208.272 104.949 210.454C105.382 212.636 106.451 214.641 108.023 216.214C109.595 217.788 111.599 218.86 113.78 219.295C115.961 219.73 118.223 219.508 120.278 218.658C122.333 217.807 124.09 216.366 125.326 214.517C126.562 212.667 127.222 210.493 127.222 208.269C127.222 205.289 126.039 202.431 123.933 200.323C121.828 198.215 118.971 197.028 115.991 197.025Z" fill="#009EFB"/>
</g>
<path d="M123.339 208.269C123.339 209.725 122.907 211.149 122.097 212.36C121.288 213.57 120.138 214.514 118.792 215.07C117.446 215.627 115.966 215.772 114.538 215.487C113.11 215.202 111.798 214.5 110.77 213.469C109.741 212.438 109.041 211.126 108.758 209.697C108.476 208.268 108.623 206.788 109.182 205.443C109.742 204.099 110.687 202.95 111.899 202.143C113.111 201.336 114.535 200.906 115.992 200.909C116.958 200.909 117.914 201.099 118.806 201.469C119.699 201.84 120.509 202.382 121.191 203.065C121.874 203.749 122.415 204.561 122.783 205.454C123.152 206.346 123.34 207.303 123.339 208.269Z" fill="url(#paint2_linear_81_2653)"/>
<path d="M115.992 198.692C114.097 198.692 112.246 199.253 110.671 200.306C109.096 201.358 107.868 202.854 107.143 204.604C106.418 206.354 106.229 208.28 106.598 210.138C106.968 211.995 107.88 213.702 109.219 215.041C110.559 216.381 112.265 217.293 114.123 217.662C115.981 218.032 117.907 217.842 119.657 217.117C121.407 216.393 122.903 215.165 123.955 213.59C125.007 212.015 125.569 210.163 125.569 208.269C125.571 207.011 125.324 205.765 124.844 204.602C124.363 203.439 123.657 202.383 122.768 201.493C121.878 200.603 120.822 199.898 119.659 199.417C118.496 198.936 117.25 198.69 115.992 198.692ZM115.992 216.915C114.278 216.918 112.602 216.412 111.176 215.461C109.75 214.511 108.638 213.158 107.981 211.576C107.324 209.993 107.152 208.251 107.485 206.57C107.819 204.889 108.644 203.345 109.856 202.133C111.068 200.921 112.612 200.096 114.293 199.763C115.973 199.429 117.716 199.602 119.298 200.259C120.881 200.916 122.233 202.027 123.184 203.453C124.134 204.879 124.64 206.555 124.638 208.269C124.638 210.562 123.727 212.761 122.105 214.383C120.484 216.004 118.285 216.915 115.992 216.915Z" fill="url(#paint3_linear_81_2653)"/>
<path d="M117.459 208.961H118.826C118.789 209.445 118.655 209.874 118.423 210.248C118.191 210.619 117.868 210.911 117.454 211.123C117.04 211.335 116.537 211.441 115.948 211.441C115.494 211.441 115.084 211.362 114.72 211.203C114.359 211.04 114.049 210.81 113.79 210.512C113.535 210.21 113.34 209.849 113.204 209.428C113.068 209.004 113 208.528 113 208.001V207.45C113 206.923 113.07 206.447 113.209 206.023C113.348 205.599 113.547 205.238 113.805 204.939C114.067 204.638 114.38 204.406 114.745 204.244C115.113 204.081 115.523 204 115.977 204C116.567 204 117.066 204.109 117.474 204.328C117.881 204.543 118.198 204.84 118.423 205.218C118.648 205.596 118.784 206.03 118.831 206.52H117.464C117.437 206.215 117.371 205.957 117.265 205.745C117.162 205.533 117.006 205.372 116.798 205.263C116.592 205.15 116.319 205.094 115.977 205.094C115.712 205.094 115.479 205.143 115.277 205.243C115.078 205.342 114.912 205.491 114.78 205.69C114.647 205.886 114.548 206.131 114.481 206.426C114.415 206.717 114.382 207.055 114.382 207.44V208.001C114.382 208.369 114.412 208.699 114.471 208.991C114.531 209.282 114.624 209.529 114.75 209.731C114.876 209.933 115.038 210.087 115.237 210.193C115.436 210.3 115.673 210.353 115.948 210.353C116.282 210.353 116.554 210.3 116.763 210.193C116.975 210.087 117.136 209.932 117.245 209.726C117.358 209.521 117.429 209.266 117.459 208.961Z" fill="white"/>
<g style="mix-blend-mode:hard-light" opacity="0.15">
<path d="M115.992 43.6685C112.421 43.6711 108.93 42.6148 105.96 40.6333C102.99 38.6518 100.674 35.8341 99.305 32.5363C97.9362 29.2386 97.5761 25.6091 98.2701 22.1067C98.9641 18.6043 100.681 15.3864 103.204 12.8598C105.727 10.3332 108.942 8.61155 112.444 7.91244C115.945 7.21333 119.575 7.56819 122.875 8.93216C126.175 10.2961 128.996 12.6079 130.982 15.5753C132.967 18.5426 134.029 22.0321 134.031 25.6026C134.031 30.3894 132.132 34.9806 128.749 38.3678C125.367 41.7551 120.778 43.6615 115.992 43.6685ZM115.992 8.56009C112.618 8.56009 109.321 9.56039 106.516 11.4345C103.711 13.3086 101.525 15.9723 100.234 19.0888C98.9434 22.2053 98.6056 25.6347 99.2637 28.9431C99.9218 32.2516 101.546 35.2906 103.931 37.6759C106.317 40.0612 109.356 41.6856 112.664 42.3437C115.973 43.0018 119.402 42.664 122.519 41.3731C125.635 40.0822 128.299 37.8961 130.173 35.0913C132.047 32.2866 133.047 28.989 133.047 25.6157C133.049 23.3749 132.609 21.1556 131.753 19.0848C130.896 17.014 129.64 15.1322 128.056 13.5471C126.472 11.9619 124.592 10.7045 122.522 9.84651C120.451 8.98856 118.233 8.54697 115.992 8.54697V8.56009Z" fill="#009EFB"/>
</g>
<g style="mix-blend-mode:hard-light" opacity="0.4">
<path d="M115.992 40.6246C113.024 40.6272 110.121 39.7495 107.652 38.1024C105.182 36.4554 103.256 34.113 102.118 31.3715C100.979 28.6299 100.679 25.6124 101.256 22.7004C101.833 19.7885 103.26 17.1129 105.357 15.012C107.454 12.9111 110.127 11.4793 113.038 10.8977C115.949 10.316 118.967 10.6106 121.711 11.7442C124.454 12.8778 126.8 14.7994 128.451 17.2662C130.103 19.733 130.986 22.634 130.988 25.6025C130.988 29.5821 129.409 33.3991 126.598 36.2155C123.786 39.0319 119.972 40.6177 115.992 40.6246ZM115.992 11.6038C113.217 11.6012 110.503 12.4222 108.194 13.9629C105.885 15.5035 104.086 17.6946 103.023 20.2586C101.96 22.8227 101.682 25.6444 102.224 28.3665C102.766 31.0887 104.103 33.5889 106.067 35.5506C108.03 37.5123 110.532 38.8472 113.254 39.3865C115.977 39.9258 118.798 39.645 121.361 38.5799C123.925 37.5147 126.114 35.713 127.652 33.4029C129.191 31.0928 130.009 28.3781 130.004 25.6025C129.994 21.8908 128.514 18.3342 125.888 15.7108C123.262 13.0874 119.704 11.6107 115.992 11.6038Z" fill="#009EFB"/>
</g>
<g style="mix-blend-mode:hard-light" opacity="0.8">
<path d="M115.991 37.8436C113.573 37.8462 111.208 37.1316 109.196 35.7902C107.184 34.4487 105.614 32.5407 104.687 30.3074C103.759 28.0741 103.514 25.6158 103.983 23.2434C104.452 20.871 105.615 18.691 107.323 16.9791C109.031 15.2672 111.209 14.1003 113.58 13.6259C115.951 13.1516 118.41 13.3911 120.645 14.3142C122.881 15.2373 124.792 16.8025 126.138 18.8118C127.484 20.8212 128.203 23.1845 128.206 25.6029C128.206 28.8448 126.92 31.9543 124.63 34.2491C122.34 36.5439 119.233 37.8366 115.991 37.8436ZM115.991 14.3855C113.766 14.3829 111.59 15.0408 109.739 16.2759C107.887 17.5109 106.444 19.2676 105.592 21.3234C104.74 23.3792 104.517 25.6416 104.951 27.8243C105.386 30.0069 106.458 32.0115 108.033 33.5842C109.607 35.1569 111.613 36.227 113.796 36.6589C115.979 37.0908 118.241 36.8652 120.296 36.0106C122.351 35.1559 124.106 33.7107 125.339 31.858C126.572 30.0053 127.227 27.8283 127.222 25.6029C127.215 22.6277 126.029 19.7766 123.924 17.674C121.819 15.5715 118.967 14.389 115.991 14.3855Z" fill="#009EFB"/>
</g>
<path d="M123.72 25.3602C123.72 26.8164 123.288 28.24 122.479 29.4506C121.67 30.6613 120.519 31.6046 119.174 32.1613C117.828 32.718 116.348 32.863 114.919 32.5779C113.491 32.2929 112.18 31.5906 111.151 30.5599C110.122 29.5293 109.422 28.2166 109.14 26.788C108.857 25.3594 109.005 23.8791 109.564 22.5345C110.123 21.1898 111.069 20.0412 112.281 19.234C113.493 18.4269 114.917 17.9974 116.373 18C117.339 18 118.296 18.1905 119.188 18.5605C120.08 18.9306 120.891 19.4729 121.573 20.1565C122.255 20.8402 122.796 21.6517 123.165 22.5446C123.533 23.4375 123.722 24.3942 123.72 25.3602Z" fill="url(#paint4_linear_81_2653)"/>
<path d="M115.992 16.0523C114.097 16.0523 112.246 16.614 110.671 17.6663C109.096 18.7187 107.868 20.2145 107.143 21.9645C106.418 23.7146 106.229 25.6403 106.598 27.4981C106.968 29.3559 107.88 31.0625 109.219 32.4019C110.559 33.7413 112.265 34.6535 114.123 35.023C115.981 35.3926 117.907 35.2029 119.657 34.478C121.407 33.7531 122.903 32.5256 123.955 30.9506C125.007 29.3756 125.569 27.5239 125.569 25.6297C125.571 24.3714 125.324 23.1253 124.844 21.9625C124.363 20.7997 123.657 19.7432 122.768 18.8536C121.878 17.9639 120.822 17.2585 119.659 16.7778C118.496 16.2971 117.25 16.0505 115.992 16.0523ZM115.992 34.2756C114.279 34.2781 112.604 33.7728 111.179 32.8235C109.753 31.8742 108.642 30.5236 107.984 28.9423C107.326 27.3611 107.152 25.6203 107.483 23.9401C107.815 22.2599 108.637 20.7158 109.846 19.503C111.056 18.2902 112.597 17.4631 114.276 17.1265C115.956 16.7898 117.697 16.9587 119.28 17.6116C120.863 18.2646 122.217 19.3724 123.171 20.7949C124.125 22.2175 124.635 23.8908 124.638 25.6034C124.641 26.741 124.42 27.8681 123.987 28.9201C123.554 29.9721 122.918 30.9283 122.115 31.734C121.311 32.5396 120.357 33.1788 119.306 33.6149C118.256 34.0511 117.129 34.2756 115.992 34.2756Z" fill="url(#paint5_linear_81_2653)"/>
<path d="M116.509 22.0985L114.446 28.2373H113L115.704 21H116.629L116.509 22.0985ZM118.234 28.2373L116.161 22.0985L116.037 21H116.967L119.686 28.2373H118.234ZM118.14 25.5482V26.6268H114.258V25.5482H118.14Z" fill="white"/>
<g style="mix-blend-mode:hard-light" opacity="0.15">
<path d="M139.949 136.516C136.378 136.516 132.888 135.458 129.919 133.474C126.951 131.49 124.637 128.671 123.27 125.372C121.904 122.073 121.547 118.444 122.243 114.942C122.94 111.44 124.659 108.223 127.184 105.698C129.709 103.174 132.925 101.454 136.427 100.758C139.929 100.061 143.559 100.419 146.857 101.785C150.156 103.151 152.976 105.465 154.959 108.434C156.943 111.403 158.002 114.893 158.002 118.464C157.995 123.249 156.091 127.837 152.707 131.221C149.322 134.605 144.735 136.509 139.949 136.516ZM139.949 101.395C136.576 101.395 133.278 102.395 130.473 104.269C127.669 106.143 125.483 108.807 124.192 111.924C122.901 115.04 122.563 118.469 123.221 121.778C123.879 125.086 125.504 128.125 127.889 130.511C130.274 132.896 133.313 134.52 136.622 135.178C139.93 135.837 143.359 135.499 146.476 134.208C149.592 132.917 152.256 130.731 154.13 127.926C156.004 125.121 157.005 121.824 157.005 118.451C157.005 116.211 156.563 113.993 155.706 111.924C154.849 109.854 153.593 107.974 152.009 106.39C150.425 104.807 148.545 103.55 146.476 102.693C144.407 101.836 142.189 101.395 139.949 101.395Z" fill="#009EFB"/>
</g>
<g style="mix-blend-mode:hard-light" opacity="0.4">
<path d="M139.948 133.472C136.98 133.472 134.078 132.592 131.61 130.943C129.142 129.293 127.218 126.949 126.082 124.207C124.946 121.464 124.649 118.446 125.228 115.535C125.807 112.624 127.236 109.949 129.335 107.85C131.435 105.751 134.109 104.322 137.02 103.743C139.932 103.163 142.95 103.461 145.692 104.597C148.435 105.733 150.779 107.656 152.428 110.125C154.077 112.593 154.957 115.495 154.957 118.463C154.954 122.443 153.372 126.258 150.558 129.072C147.744 131.886 143.928 133.469 139.948 133.472ZM139.948 104.438C137.175 104.438 134.463 105.261 132.157 106.802C129.85 108.343 128.053 110.533 126.991 113.096C125.93 115.659 125.652 118.479 126.193 121.199C126.734 123.92 128.07 126.419 130.031 128.38C131.993 130.342 134.492 131.677 137.212 132.219C139.933 132.76 142.753 132.482 145.316 131.42C147.878 130.359 150.069 128.561 151.61 126.255C153.151 123.949 153.973 121.237 153.973 118.463C153.966 114.746 152.487 111.182 149.858 108.554C147.229 105.925 143.666 104.445 139.948 104.438Z" fill="#009EFB"/>
</g>
<g style="mix-blend-mode:hard-light" opacity="0.8">
<path d="M139.949 130.691C137.531 130.691 135.167 129.974 133.156 128.63C131.145 127.287 129.578 125.377 128.652 123.143C127.727 120.908 127.485 118.45 127.956 116.078C128.428 113.706 129.593 111.527 131.303 109.817C133.013 108.107 135.192 106.943 137.564 106.471C139.935 105.999 142.394 106.241 144.628 107.167C146.863 108.092 148.772 109.659 150.116 111.67C151.459 113.681 152.177 116.045 152.177 118.463C152.177 121.706 150.888 124.817 148.595 127.11C146.302 129.403 143.192 130.691 139.949 130.691ZM139.949 107.233C137.725 107.233 135.55 107.893 133.701 109.129C131.852 110.365 130.411 112.122 129.56 114.177C128.709 116.232 128.488 118.493 128.922 120.675C129.357 122.856 130.429 124.86 132.003 126.432C133.577 128.004 135.582 129.073 137.764 129.506C139.945 129.938 142.207 129.714 144.261 128.861C146.315 128.007 148.07 126.564 149.304 124.714C150.538 122.863 151.195 120.688 151.193 118.463C151.189 115.484 150.003 112.627 147.895 110.521C145.787 108.416 142.929 107.233 139.949 107.233Z" fill="#009EFB"/>
</g>
<path d="M147.296 118.347C147.296 119.8 146.865 121.221 146.058 122.429C145.251 123.637 144.103 124.579 142.761 125.135C141.418 125.691 139.941 125.836 138.516 125.553C137.091 125.269 135.781 124.57 134.754 123.542C133.726 122.515 133.027 121.206 132.743 119.78C132.46 118.355 132.605 116.878 133.161 115.535C133.717 114.193 134.659 113.046 135.867 112.238C137.076 111.431 138.496 111 139.949 111C141.898 111 143.766 111.774 145.144 113.152C146.522 114.53 147.296 116.398 147.296 118.347Z" fill="url(#paint6_linear_81_2653)"/>
<path d="M139.948 108.886C138.054 108.886 136.203 109.448 134.628 110.501C133.053 111.553 131.825 113.049 131.1 114.799C130.375 116.549 130.186 118.474 130.555 120.332C130.925 122.19 131.837 123.897 133.176 125.236C134.516 126.576 136.222 127.488 138.08 127.857C139.938 128.227 141.864 128.037 143.614 127.312C145.364 126.587 146.859 125.36 147.912 123.785C148.964 122.21 149.526 120.358 149.526 118.464C149.526 115.924 148.517 113.488 146.721 111.692C144.925 109.896 142.489 108.886 139.948 108.886ZM139.948 127.11C138.239 127.107 136.569 126.598 135.149 125.646C133.729 124.695 132.622 123.343 131.97 121.763C131.318 120.183 131.148 118.445 131.483 116.769C131.819 115.093 132.643 113.554 133.853 112.346C135.062 111.138 136.603 110.316 138.28 109.983C139.956 109.651 141.694 109.823 143.273 110.477C144.852 111.132 146.202 112.24 147.151 113.662C148.101 115.083 148.608 116.754 148.608 118.464C148.608 119.6 148.383 120.726 147.948 121.776C147.513 122.825 146.875 123.779 146.071 124.582C145.266 125.385 144.312 126.022 143.261 126.455C142.211 126.889 141.085 127.111 139.948 127.11Z" fill="url(#paint7_linear_81_2653)"/>
<path d="M140.107 119.011H138.258L138.248 118.047H139.833C140.105 118.047 140.332 118.009 140.514 117.933C140.697 117.856 140.834 117.745 140.927 117.6C141.023 117.454 141.071 117.277 141.071 117.068C141.071 116.836 141.026 116.647 140.937 116.501C140.851 116.355 140.715 116.249 140.529 116.183C140.344 116.113 140.108 116.079 139.823 116.079H138.7V122.237H137.333V115H139.823C140.234 115 140.6 115.04 140.922 115.119C141.247 115.196 141.522 115.315 141.747 115.477C141.972 115.64 142.143 115.843 142.259 116.089C142.378 116.334 142.438 116.625 142.438 116.963C142.438 117.262 142.368 117.537 142.229 117.789C142.093 118.037 141.883 118.239 141.598 118.395C141.316 118.551 140.958 118.64 140.524 118.663L140.107 119.011ZM140.047 122.237H137.855L138.427 121.164H140.047C140.319 121.164 140.542 121.119 140.718 121.029C140.897 120.94 141.03 120.817 141.116 120.662C141.205 120.503 141.25 120.32 141.25 120.115C141.25 119.89 141.21 119.694 141.131 119.528C141.054 119.363 140.932 119.235 140.763 119.146C140.597 119.056 140.378 119.011 140.107 119.011H138.685L138.695 118.047H140.504L140.817 118.42C141.235 118.423 141.575 118.506 141.836 118.668C142.102 118.831 142.297 119.04 142.423 119.295C142.549 119.55 142.612 119.825 142.612 120.12C142.612 120.584 142.511 120.973 142.309 121.288C142.11 121.603 141.818 121.84 141.434 121.999C141.053 122.158 140.59 122.237 140.047 122.237Z" fill="white"/>
<defs>
<linearGradient id="paint0_linear_81_2653" x1="87.5202" y1="299.925" x2="97.7914" y2="310.284" gradientUnits="userSpaceOnUse">
<stop stop-color="#FF9350"/>
<stop offset="1" stop-color="#FF6200"/>
</linearGradient>
<linearGradient id="paint1_linear_81_2653" x1="85.8788" y1="298.444" x2="99.268" y2="311.948" gradientUnits="userSpaceOnUse">
<stop stop-color="#FF9350"/>
<stop offset="1" stop-color="#FF6200"/>
</linearGradient>
<linearGradient id="paint2_linear_81_2653" x1="110.561" y1="203.382" x2="120.851" y2="213.76" gradientUnits="userSpaceOnUse">
<stop stop-color="#FF9350"/>
<stop offset="1" stop-color="#FF6200"/>
</linearGradient>
<linearGradient id="paint3_linear_81_2653" x1="108.943" y1="201.91" x2="122.332" y2="215.414" gradientUnits="userSpaceOnUse">
<stop stop-color="#FF9350"/>
<stop offset="1" stop-color="#FF6200"/>
</linearGradient>
<linearGradient id="paint4_linear_81_2653" x1="110.943" y1="20.473" x2="121.233" y2="30.8509" gradientUnits="userSpaceOnUse">
<stop stop-color="#FF9350"/>
<stop offset="1" stop-color="#FF6200"/>
</linearGradient>
<linearGradient id="paint5_linear_81_2653" x1="108.943" y1="19.2703" x2="122.332" y2="32.7744" gradientUnits="userSpaceOnUse">
<stop stop-color="#FF9350"/>
<stop offset="1" stop-color="#FF6200"/>
</linearGradient>
<linearGradient id="paint6_linear_81_2653" x1="134.542" y1="113.469" x2="144.813" y2="123.828" gradientUnits="userSpaceOnUse">
<stop stop-color="#FF9350"/>
<stop offset="1" stop-color="#FF6200"/>
</linearGradient>
<linearGradient id="paint7_linear_81_2653" x1="132.9" y1="112.104" x2="146.289" y2="125.609" gradientUnits="userSpaceOnUse">
<stop stop-color="#FF9350"/>
<stop offset="1" stop-color="#FF6200"/>
</linearGradient>
</defs>
</svg>
