<svg id="Kreuz" xmlns="http://www.w3.org/2000/svg" viewBox="0 0 212.6 85.04"><defs><style>.cls-1{fill:#fdba4d;}.cls-2,.cls-3{fill:#17479e;}.cls-3{fill-rule:evenodd;}</style></defs><title>Logo_physioswiss_cmyk</title><polygon class="cls-1" points="62.36 28.35 68.03 0 39.69 0 34.02 28.35 5.67 28.35 0 56.69 28.35 56.69 22.68 85.04 51.02 85.04 56.69 56.69 85.04 56.69 90.71 28.35 62.36 28.35"/><path class="cls-2" d="M194.39,64.81h7.07a3,3,0,0,0,1.43-.27,1.23,1.23,0,0,0,.61-0.87,0.8,0.8,0,0,0-.25-0.87,2.28,2.28,0,0,0-1.31-.28H199c-1.73,0-2.85-.25-3.35-0.73s-0.63-1.36-.37-2.6a4.3,4.3,0,0,1,1.68-2.8,6.22,6.22,0,0,1,3.59-.89h7.22L207.29,58h-5.94a5.16,5.16,0,0,0-1.93.23,1.11,1.11,0,0,0-.61.83,0.73,0.73,0,0,0,.22.8,1.92,1.92,0,0,0,1.15.26h3a4.17,4.17,0,0,1,3,.91,2.69,2.69,0,0,1,.56,2.61,4.67,4.67,0,0,1-1.53,2.67,4.08,4.08,0,0,1-2.73,1h-8.66Z"/><path class="cls-2" d="M180.37,64.81h7.07a3,3,0,0,0,1.43-.27,1.23,1.23,0,0,0,.61-0.87,0.79,0.79,0,0,0-.25-0.88,2.27,2.27,0,0,0-1.3-.28H185q-2.59,0-3.35-.73t-0.37-2.6a4.3,4.3,0,0,1,1.68-2.8,6.21,6.21,0,0,1,3.59-.9h7.22L193.27,58h-5.94a5.14,5.14,0,0,0-1.93.23,1.1,1.1,0,0,0-.61.83,0.74,0.74,0,0,0,.22.8,1.94,1.94,0,0,0,1.15.25h3a4.18,4.18,0,0,1,3,.91,2.69,2.69,0,0,1,.56,2.61,4.7,4.7,0,0,1-1.53,2.67,4.07,4.07,0,0,1-2.73,1h-8.65Z"/><polygon class="cls-3" points="180.99 51.02 177.73 51.02 177.11 54.14 180.37 54.14 180.99 51.02"/><polygon class="cls-3" points="176.84 55.49 174.45 67.32 177.73 67.32 180.1 55.49 176.84 55.49"/><path class="cls-3" d="M171.49,55.49L167,63.74l-1.15-8.25h-3.61l-4.5,8.25-1.11-8.25h-12a5.42,5.42,0,0,0-3.34.89,4.38,4.38,0,0,0-1.55,2.81,2.63,2.63,0,0,0,.63,2.5,3.6,3.6,0,0,0,2.82.86h2.71a2,2,0,0,1,1.23.28,0.84,0.84,0,0,1,.23.88,1.24,1.24,0,0,1-.57.88,2.66,2.66,0,0,1-1.34.27h-8.14l-0.5,2.46h9.65a3.6,3.6,0,0,0,2.54-1,4.79,4.79,0,0,0,1.42-2.68,2.87,2.87,0,0,0-.52-2.63,3.69,3.69,0,0,0-2.8-.91h-2.84a1.7,1.7,0,0,1-1.08-.26,0.77,0.77,0,0,1-.21-0.8,1.11,1.11,0,0,1,.57-0.84,4.57,4.57,0,0,1,1.8-.23h8.21l1.56,9.37h3.75l4.35-8.11,1.14,8.11h3.9l6.7-11.83h-3.43Z"/><path class="cls-2" d="M210.51,19.28q-2.88-3.47-8.82-3.48a15.54,15.54,0,0,0-10.2,3.47,15.25,15.25,0,0,0-5.32,9.25q-1.1,5.76,1.8,9.21t8.88,3.45A15.45,15.45,0,0,0,207,37.76a15.2,15.2,0,0,0,5.29-9.22Q213.4,22.76,210.51,19.28Zm-5,9.28A9.93,9.93,0,0,1,202.76,34a6.89,6.89,0,0,1-5,2,4.65,4.65,0,0,1-4.22-2q-1.27-2-.6-5.47a9.93,9.93,0,0,1,2.7-5.45,6.86,6.86,0,0,1,5-2,4.7,4.7,0,0,1,4.23,1.95Q206.15,25.05,205.48,28.56Z"/><polygon class="cls-3" points="185.95 7.23 179.15 7.23 177.87 13.82 184.68 13.82 185.95 7.23"/><path class="cls-3" d="M157.3,16.16a11.27,11.27,0,0,0-6.91,1.92,9.09,9.09,0,0,0-3.23,5.83q-0.74,3.89.72,5.42t6.45,1.53h5.62a4.21,4.21,0,0,1,2.54.58,1.75,1.75,0,0,1,.49,1.84,2.57,2.57,0,0,1-1.18,1.83,5.39,5.39,0,0,1-2.77.61H142.16l-1,5.1h20a7.55,7.55,0,0,0,5.26-2.17,9.93,9.93,0,0,0,2.95-5.56q0.68-3.57-1.09-5.45t-5.8-1.89h-5.89a3.55,3.55,0,0,1-2.24-.54,1.62,1.62,0,0,1-.43-1.67,2.3,2.3,0,0,1,1.18-1.74,9.42,9.42,0,0,1,3.75-.48h17.5l-3.83,19.49h6.8l4.89-24.66H157.3Z"/><path class="cls-3" d="M135.71,16.16l-3.66,19.2h-5.22q-2.65,0-3.32-.86t-0.13-3.65l2.79-14.69h-6.42l-2.89,15.19q-1,5.08,1,7.25c1.29,1.44,3.77,2.22,7.45,2.22H131l-0.08.36a4.06,4.06,0,0,1-1.5,2.59,4.91,4.91,0,0,1-3,.88H114.77l-1,5h12.76c3.14,0,5.62-.72,7.44-2.28a11.7,11.7,0,0,0,3.52-6.55c0-.21,1-5.11,1-5.11l3.71-19.5h-6.52Z"/><path class="cls-3" d="M112.73,18.32c-1.35-1.42-3.84-2.16-7.46-2.16H99.61l1.73-8.93H95L88.21,40.82h6.46l3.85-19.23h5.11q2.48,0,3.22.91t0.27,3.44l-2.83,14.88h6.57l3-15.63Q114.76,20.45,112.73,18.32Z"/><path class="cls-3" d="M77.32,16.16H64.8L58.11,49.61h6.66l1.77-8.79H72.2a17.9,17.9,0,0,0,6.09-.95A11.62,11.62,0,0,0,82.66,37a15.16,15.16,0,0,0,2.72-3.72,16.5,16.5,0,0,0,1.51-4.48Q88,22.83,85.5,19.5C83.81,17.28,81.08,16.16,77.32,16.16Zm2.85,12.13q-0.74,3.87-2.7,5.54t-5.9,1.66h-4l2.76-14h4.38q3.71,0,4.92,1.54T80.17,28.28Z"/></svg>