<svg width="24" height="25" viewBox="0 0 24 25" fill="none" xmlns="http://www.w3.org/2000/svg">
<path d="M20 7.95496H4C2.89543 7.95496 2 8.85039 2 9.95496V19.955C2 21.0595 2.89543 21.955 4 21.955H20C21.1046 21.955 22 21.0595 22 19.955V9.95496C22 8.85039 21.1046 7.95496 20 7.95496Z" stroke="#878787" stroke-width="2" stroke-linecap="round" stroke-linejoin="round"/>
<path d="M16 21.955V5.95496C16 5.42452 15.7893 4.91582 15.4142 4.54074C15.0391 4.16567 14.5304 3.95496 14 3.95496H10C9.46957 3.95496 8.96086 4.16567 8.58579 4.54074C8.21071 4.91582 8 5.42452 8 5.95496V21.955" stroke="#878787" stroke-width="2" stroke-linecap="round" stroke-linejoin="round"/>
</svg>
