<svg width="24" height="24" viewBox="0 0 24 24" fill="none" xmlns="http://www.w3.org/2000/svg">
<mask id="mask0_367_43" style="mask-type:alpha" maskUnits="userSpaceOnUse" x="0" y="0" width="24" height="24">
<rect y="-6.10352e-05" width="24" height="24" fill="#D9D9D9"/>
</mask>
<g mask="url(#mask0_367_43)">
<path d="M15.8463 12.6922L11.8885 8.86344C11.4104 8.40194 11.0081 7.88819 10.6818 7.32219C10.3554 6.75619 10.1923 6.13977 10.1923 5.47294C10.1923 4.64711 10.4814 3.94519 11.0595 3.36719C11.6375 2.78902 12.3394 2.49994 13.1653 2.49994C13.7051 2.49994 14.2035 2.63011 14.6605 2.89044C15.1177 3.15061 15.5129 3.48202 15.8463 3.88469C16.1796 3.48202 16.5748 3.15061 17.0318 2.89044C17.4888 2.63011 17.9872 2.49994 18.527 2.49994C19.3529 2.49994 20.0548 2.78902 20.6328 3.36719C21.2109 3.94519 21.5 4.64711 21.5 5.47294C21.5 6.13977 21.3394 6.75619 21.0183 7.32219C20.6971 7.88819 20.2974 8.40194 19.8193 8.86344L15.8463 12.6922ZM15.8463 10.6039L18.7058 7.83269C19.0416 7.50319 19.3413 7.14486 19.6048 6.75769C19.8683 6.37052 20 5.94227 20 5.47294C20 5.06144 19.8574 4.71311 19.572 4.42794C19.2869 4.14261 18.9385 3.99994 18.527 3.99994C18.2104 3.99994 17.9206 4.08261 17.6578 4.24794C17.3949 4.41344 17.1629 4.62311 16.9615 4.87694L15.8463 6.23444L14.7308 4.87694C14.5294 4.62311 14.2974 4.41344 14.0345 4.24794C13.7719 4.08261 13.4821 3.99994 13.1653 3.99994C12.7538 3.99994 12.4054 4.14261 12.1203 4.42794C11.8349 4.71311 11.6923 5.06144 11.6923 5.47294C11.6923 5.94227 11.824 6.37052 12.0875 6.75769C12.351 7.14486 12.6507 7.50319 12.9865 7.83269L15.8463 10.6039ZM6.70203 18.5769L13.9595 20.6307L19.9288 18.7807C19.8776 18.5539 19.7719 18.3799 19.6115 18.2587C19.4512 18.1375 19.2698 18.0769 19.0673 18.0769H14.17C13.7337 18.0769 13.3629 18.0603 13.0578 18.0269C12.7526 17.9936 12.4391 17.9205 12.1173 17.8077L9.85978 17.0614L10.3038 15.5922L12.3288 16.2962C12.6314 16.3987 12.9809 16.4685 13.377 16.5057C13.7732 16.5429 14.3366 16.5666 15.0673 16.5769C15.0673 16.3294 15.0115 16.1159 14.9 15.9364C14.7885 15.7569 14.6417 15.6358 14.4595 15.5729L8.65778 13.4422C8.63844 13.4359 8.62078 13.4311 8.60478 13.4279C8.58878 13.4246 8.57119 13.4229 8.55203 13.4229H6.70203V18.5769ZM1.70203 21.4999V11.9232H8.54053C8.64553 11.9232 8.75186 11.9347 8.85953 11.9577C8.96736 11.9809 9.06736 12.0078 9.15953 12.0384L14.9865 14.1847C15.4404 14.3525 15.8173 14.6496 16.1173 15.0759C16.4173 15.5023 16.5673 16.0026 16.5673 16.5769H19.0673C19.7853 16.5769 20.3702 16.8087 20.822 17.2722C21.274 17.7355 21.5 18.3371 21.5 19.0769V19.8844L14.0095 22.2114L6.70203 20.1269V21.4999H1.70203ZM3.20203 19.9999H5.20203V13.4229H3.20203V19.9999Z" fill="#878787"/>
</g>
</svg>
