<svg width="24" height="25" viewBox="0 0 24 25" fill="none" xmlns="http://www.w3.org/2000/svg">
<path d="M19 3.65167H5C3.89543 3.65167 3 4.5471 3 5.65167V19.6517C3 20.7562 3.89543 21.6517 5 21.6517H19C20.1046 21.6517 21 20.7562 21 19.6517V5.65167C21 4.5471 20.1046 3.65167 19 3.65167Z" stroke="#878787" stroke-width="2" stroke-linecap="round" stroke-linejoin="round"/>
<path d="M8.5 10.6517C9.32843 10.6517 10 9.9801 10 9.15167C10 8.32325 9.32843 7.65167 8.5 7.65167C7.67157 7.65167 7 8.32325 7 9.15167C7 9.9801 7.67157 10.6517 8.5 10.6517Z" stroke="#878787" stroke-width="2" stroke-linecap="round" stroke-linejoin="round"/>
<path d="M21 15.6517L16 10.6517L5 21.6517" stroke="#878787" stroke-width="2" stroke-linecap="round" stroke-linejoin="round"/>
</svg>
