<svg width="24" height="24" viewBox="0 0 24 24" fill="none" xmlns="http://www.w3.org/2000/svg">
<mask id="mask0_367_53" style="mask-type:alpha" maskUnits="userSpaceOnUse" x="0" y="0" width="24" height="24">
<rect y="-9.15527e-05" width="24" height="24" fill="#D9D9D9"/>
</mask>
<g mask="url(#mask0_367_53)">
<path d="M12.3463 12.0384V4.40391C12.3463 4.14774 12.4331 3.93308 12.6067 3.75991C12.7804 3.58658 12.9957 3.49991 13.2525 3.49991H19.5975C19.8543 3.49991 20.0689 3.58658 20.2413 3.75991C20.4138 3.93308 20.5 4.14774 20.5 4.40391V8.67291C20.5 8.92907 20.4133 9.14374 20.24 9.31691C20.0668 9.49024 19.8522 9.57691 19.596 9.57691H14.8077L12.3463 12.0384ZM13.8462 8.07691H19V4.99991H13.8462V8.07691ZM19.4402 20.4999C17.5557 20.4999 15.6625 20.0617 13.7605 19.1854C11.8587 18.3091 10.1113 17.0729 8.51825 15.4769C6.92542 13.8807 5.69083 12.1332 4.8145 10.2344C3.93817 8.33574 3.5 6.44416 3.5 4.55966C3.5 4.25683 3.6 4.00449 3.8 3.80266C4 3.60082 4.25 3.49991 4.55 3.49991H7.8115C8.064 3.49991 8.28675 3.58233 8.47975 3.74716C8.67275 3.91183 8.7955 4.11533 8.848 4.35766L9.42125 7.29991C9.46092 7.57291 9.45258 7.80749 9.39625 8.00366C9.33975 8.19983 9.23842 8.36457 9.09225 8.49791L6.78275 10.7462C7.15442 11.4268 7.57908 12.0707 8.05675 12.6779C8.53425 13.2849 9.05125 13.8647 9.60775 14.4172C10.1564 14.966 10.7397 15.4757 11.3577 15.9462C11.9757 16.4167 12.6431 16.8545 13.3598 17.2597L15.6038 14.9962C15.7603 14.8333 15.9498 14.7192 16.1723 14.6537C16.3946 14.5883 16.6257 14.5723 16.8655 14.6057L19.6423 15.1712C19.8948 15.2378 20.1008 15.3667 20.2605 15.5577C20.4202 15.7487 20.5 15.9653 20.5 16.2077V19.4499C20.5 19.7499 20.3991 19.9999 20.1973 20.1999C19.9954 20.3999 19.7431 20.4999 19.4402 20.4999ZM6.073 9.32691L7.85775 7.61916C7.88975 7.59349 7.91058 7.55824 7.92025 7.51341C7.92992 7.46857 7.92833 7.42691 7.9155 7.38841L7.48075 5.15366C7.46792 5.10249 7.4455 5.06407 7.4135 5.03841C7.3815 5.01274 7.33983 4.99991 7.2885 4.99991H5.15C5.1115 4.99991 5.07942 5.01274 5.05375 5.03841C5.02825 5.06407 5.0155 5.09616 5.0155 5.13466C5.06667 5.81799 5.1785 6.51216 5.351 7.21716C5.52333 7.92233 5.764 8.62558 6.073 9.32691ZM14.773 17.9692C15.4358 18.2782 16.1272 18.5144 16.847 18.6779C17.567 18.8412 18.2397 18.9383 18.8652 18.9692C18.9037 18.9692 18.9358 18.9563 18.9615 18.9307C18.9872 18.905 19 18.8729 19 18.8344V16.7307C19 16.6793 18.9872 16.6377 18.9615 16.6057C18.9358 16.5737 18.8974 16.5512 18.8462 16.5384L16.7462 16.1114C16.7077 16.0986 16.6741 16.097 16.6453 16.1067C16.6164 16.1163 16.5859 16.1372 16.5538 16.1692L14.773 17.9692Z" fill="#878787"/>
</g>
</svg>
