<svg width="24" height="25" viewBox="0 0 24 25" fill="none" xmlns="http://www.w3.org/2000/svg">
<path d="M21.21 16.3675C20.5738 17.872 19.5788 19.1977 18.3119 20.2288C17.0449 21.2599 15.5447 21.9649 13.9424 22.2823C12.3401 22.5996 10.6844 22.5197 9.12012 22.0493C7.55585 21.579 6.1306 20.7326 4.969 19.5842C3.80739 18.4357 2.94479 17.0203 2.45661 15.4615C1.96843 13.9027 1.86954 12.248 2.16857 10.6421C2.46761 9.03629 3.15547 7.52814 4.17202 6.24954C5.18857 4.97094 6.50286 3.96083 7.99998 3.30751" stroke="#878787" stroke-width="2" stroke-linecap="round" stroke-linejoin="round"/>
<path d="M22 12.4775C22 11.1643 21.7413 9.86393 21.2388 8.65067C20.7362 7.43742 19.9997 6.33503 19.0711 5.40644C18.1425 4.47785 17.0401 3.74126 15.8268 3.23871C14.6136 2.73617 13.3132 2.47751 12 2.47751V12.4775H22Z" stroke="#878787" stroke-width="2" stroke-linecap="round" stroke-linejoin="round"/>
</svg>
