<svg width="24" height="25" viewBox="0 0 24 25" fill="none" xmlns="http://www.w3.org/2000/svg">
<path fill-rule="evenodd" clip-rule="evenodd" d="M4 3.49991C3.73478 3.49991 3.48043 3.60527 3.29289 3.7928C3.10536 3.98034 3 4.23469 3 4.49991V17.4999C3 17.7651 3.10536 18.0195 3.29289 18.207C3.48043 18.3946 3.73478 18.4999 4 18.4999H11.5V20.4999H8V21.4999H16V20.4999H12.5V18.4999H20C20.2652 18.4999 20.5196 18.3946 20.7071 18.207C20.8946 18.0195 21 17.7651 21 17.4999V4.49991C21 4.23469 20.8946 3.98034 20.7071 3.7928C20.5196 3.60527 20.2652 3.49991 20 3.49991H4ZM6 16.1899V15.8569C6 14.5979 7.865 13.4144 9.6665 13.0039C9.959 12.9374 9.926 13.3589 10 13.4999H13.9165C13.9925 13.3554 14.166 12.9659 14.3335 13.0039C14.71 13.0899 15.089 13.2094 15.4535 13.3564L15.465 13.3509L15.4685 13.3579L15.471 13.3629C16.8425 13.9209 18 14.8659 18 15.8569V17.4999H19.5V5.49991H4.5V17.4999H6V16.1899ZM7.7475 14.9199C8.03646 14.7128 8.34571 14.5355 8.6705 14.3909C8.68319 14.6465 8.72513 14.8998 8.7955 15.1459L8.7985 15.1549C8.59922 15.281 8.4509 15.4734 8.37975 15.6982C8.30859 15.923 8.31916 16.1658 8.40961 16.3835C8.50005 16.6013 8.66455 16.7801 8.87403 16.8884C9.08352 16.9966 9.32453 17.0274 9.55449 16.9752C9.78445 16.923 9.98856 16.7912 10.1308 16.6031C10.273 16.415 10.3442 16.1827 10.3317 15.9472C10.3193 15.7118 10.224 15.4882 10.0628 15.3162C9.90154 15.1441 9.68468 15.0346 9.4505 15.0069L9.4355 14.9589C9.36765 14.7191 9.33333 14.4711 9.3335 14.2219L9.3965 14.3414H14.52L14.635 14.1229C14.7243 14.1519 14.8133 14.1826 14.902 14.2149C14.9045 14.3249 14.8955 14.4509 14.878 14.5799C14.8589 14.7221 14.8284 14.8625 14.787 14.9999H14.3335C14.2716 15.0001 14.2109 15.0174 14.1582 15.0499C14.1055 15.0825 14.0628 15.1291 14.035 15.1844L13.702 15.8509C13.6795 15.8974 13.6675 15.9483 13.667 15.9999V16.6664C13.667 16.8509 13.816 16.9999 14 16.9999H14.6665V16.3334H14.3335V16.0784L14.5395 15.6664H15.4605L15.6665 16.0784V16.3334H15.3335V16.9999H16C16.0438 16.9999 16.0872 16.9913 16.1276 16.9745C16.1681 16.9578 16.2049 16.9332 16.2358 16.9022C16.2668 16.8713 16.2914 16.8345 16.3081 16.794C16.3249 16.7536 16.3335 16.7102 16.3335 16.6664V15.9999C16.333 15.9483 16.321 15.8974 16.2985 15.8509L15.965 15.1839C15.9371 15.1287 15.8944 15.0822 15.8417 15.0497C15.7891 15.0173 15.7284 15 15.6665 14.9999H15.478C15.5167 14.8354 15.5434 14.6683 15.558 14.4999C15.9635 14.7049 16.3115 14.9394 16.568 15.1784C16.934 15.5199 17 15.7574 17 15.8564V17.4999H7V15.8564C7 15.7194 7.132 15.3689 7.7475 14.9199ZM9.6665 15.9999C9.66696 16.044 9.6587 16.0878 9.6422 16.1287C9.6257 16.1696 9.60127 16.2069 9.57033 16.2383C9.53939 16.2698 9.50254 16.2948 9.4619 16.312C9.42125 16.3292 9.37762 16.3381 9.3335 16.3384C9.28934 16.3382 9.24565 16.3293 9.20495 16.3121C9.16425 16.295 9.12734 16.27 9.09634 16.2385C9.06535 16.2071 9.04088 16.1698 9.02435 16.1288C9.00781 16.0879 8.99954 16.0441 9 15.9999C9 15.8084 9.154 15.6614 9.3335 15.6614C9.513 15.6614 9.6665 15.8084 9.6665 15.9999ZM12 4.99991C12.1326 4.99991 12.2598 4.94723 12.3536 4.85346C12.4473 4.75969 12.5 4.63252 12.5 4.49991C12.5 4.3673 12.4473 4.24012 12.3536 4.14636C12.2598 4.05259 12.1326 3.99991 12 3.99991C11.8674 3.99991 11.7402 4.05259 11.6464 4.14636C11.5527 4.24012 11.5 4.3673 11.5 4.49991C11.5 4.63252 11.5527 4.75969 11.6464 4.85346C11.7402 4.94723 11.8674 4.99991 12 4.99991Z" fill="#878787"/>
<path fill-rule="evenodd" clip-rule="evenodd" d="M12 11.4999C12.5304 11.4999 13.0391 11.2892 13.4142 10.9141C13.7893 10.539 14 10.0303 14 9.49991C14 8.96948 13.7893 8.46077 13.4142 8.08569C13.0391 7.71062 12.5304 7.49991 12 7.49991C11.4696 7.49991 10.9609 7.71062 10.5858 8.08569C10.2107 8.46077 10 8.96948 10 9.49991C10 10.0303 10.2107 10.539 10.5858 10.9141C10.9609 11.2892 11.4696 11.4999 12 11.4999ZM12 12.4999C12.7956 12.4999 13.5587 12.1838 14.1213 11.6212C14.6839 11.0586 15 10.2956 15 9.49991C15 8.70426 14.6839 7.9412 14.1213 7.37859C13.5587 6.81598 12.7956 6.49991 12 6.49991C11.2044 6.49991 10.4413 6.81598 9.87868 7.37859C9.31607 7.9412 9 8.70426 9 9.49991C9 10.2956 9.31607 11.0586 9.87868 11.6212C10.4413 12.1838 11.2044 12.4999 12 12.4999Z" fill="#878787"/>
</svg>
