<svg xmlns="http://www.w3.org/2000/svg" xmlns:xlink="http://www.w3.org/1999/xlink" width="50.13" height="89" viewBox="0 0 50.13 89"><defs><clipPath id="a"><path d="M0,60.654H50.13v-89H0Z" transform="translate(0 28.346)" fill="none"/></clipPath></defs><g transform="translate(0 28.346)"><path d="M.958,54.871H44.466V-26.123H.958Z" transform="translate(2.05 4.757)" fill="#fff"/><g transform="translate(0 -28.346)" clip-path="url(#a)"><g transform="translate(0.001 -0.002)"><path d="M30.92,0H-9.693A4.772,4.772,0,0,0-14.45,4.76V84.243A4.772,4.772,0,0,0-9.693,89H30.92a4.774,4.774,0,0,0,4.76-4.757V4.76A4.775,4.775,0,0,0,30.92,0M13.142,84.821H8.087a1.587,1.587,0,1,1,0-3.174h5.055a1.587,1.587,0,0,1,0,3.174m16.192-8.1H-8.1v-66H29.334Z" transform="translate(14.45)" fill="#e3e3e3"/></g></g><path d="M2.118-15.71h36.83v-9.146H2.118Z" transform="translate(4.532 7.468)" fill="none" stroke="#000" stroke-width="0.5"/><path d="M2.921,19.26H34.7V-21H2.921Z" transform="translate(6.25 15.717)" fill="none" stroke="#000" stroke-width="0.5"/><path d="M2.021,3.974H39.343v-11.6H2.021Z" transform="translate(4.324 44.34)" fill="#184e92"/></g></svg>