<svg xmlns="http://www.w3.org/2000/svg" xmlns:xlink="http://www.w3.org/1999/xlink" width="69.604" height="90.82" viewBox="0 0 69.604 90.82"><defs><clipPath id="a"><path d="M0,59.639H69.6v-90.82H0Z" transform="translate(0 31.181)" fill="none"/></clipPath></defs><g transform="translate(0 31.182)"><path d="M1.2,51.649H63.833V-28.1H1.2Z" transform="translate(2.288 5.883)" fill="#fff"/><g transform="translate(0 -31.181)" clip-path="url(#a)"><g transform="translate(-0.001 0)"><path d="M41.526,0H-15.341a6.388,6.388,0,0,0-6.37,6.37V84.453a6.388,6.388,0,0,0,6.37,6.367H41.526a6.388,6.388,0,0,0,6.37-6.367V6.37A6.388,6.388,0,0,0,41.526,0m-25.9,86.841H10.555a1.592,1.592,0,1,1,0-3.184h5.074a1.592,1.592,0,1,1,0,3.184m25.1-7.063H-14.546V9.551H40.731Z" transform="translate(21.711)" fill="#e3e3e3"/></g></g><path d="M2.481-21.637H57.632v-6.134H2.481Z" transform="translate(4.745 6.522)" fill="none" stroke="#000" stroke-width="0.5"/><g transform="translate(43.337 -5.494)"><path d="M0,0V50.835" fill="none" stroke="#000" stroke-width="0.5"/></g><path d="M3.469,28.419H52.8V-22.3H3.469Z" transform="translate(6.635 16.983)" fill="none" stroke="#000" stroke-width="0.5"/><path d="M2.481,42.432H23.019v-70.2H2.481Z" transform="translate(4.407 6.091)" fill="#c9c9c9"/><path d="M3.409-20.565H20.325v-4.567H3.409Z" transform="translate(5.365 64.169)" fill="#184e92"/><g transform="translate(23.072 -19.893)"><path d="M2.355,2.784.428,4.711,0,4.282,1.927,2.355,0,.428.428,0,2.355,1.927,4.282,0l.428.428L2.784,2.355,4.711,4.282l-.428.428Z" transform="translate(-1.648)" fill="#127aad"/></g></g></svg>