<svg xmlns="http://www.w3.org/2000/svg" xmlns:xlink="http://www.w3.org/1999/xlink" width="113.767" height="72.217" viewBox="0 0 113.767 72.217"><defs><clipPath id="a"><path d="M0,41.036H113.767V-31.181H0Z" transform="translate(0 31.181)" fill="none"/></clipPath></defs><g transform="translate(0 31.182)"><path d="M7.7,17.987H85.676V-28.389H7.7Z" transform="translate(10.199 3.701)" fill="#fff"/><g transform="translate(0 -31.181)" clip-path="url(#a)"><g transform="translate(10.956 0)"><path d="M3.421,34.2H83.274a6.007,6.007,0,0,0,6-5.978V-20.013a6.005,6.005,0,0,0-6-5.975H3.421a6.007,6.007,0,0,0-6,5.975V28.224a6.009,6.009,0,0,0,6,5.978m2-52.223H81.271V26.232H5.421Z" transform="translate(2.581 25.988)" fill="#e3e3e3"/></g><g transform="translate(0 64.248)"><path d="M63.7,0H14.947V1a2,2,0,0,1-2,1.992H4.694A2,2,0,0,1,2.694,1V0H-46.063a2,2,0,0,0-2,1.992V5.978a2,2,0,0,0,2,1.992H63.7a2,2,0,0,0,2-1.992V1.992A2,2,0,0,0,63.7,0" transform="translate(48.063)" fill="#e3e3e3"/></g></g><path d="M8.239-21.516h75.9v-6.2H8.239Z" transform="translate(10.92 4.59)" fill="none" stroke="#000" stroke-width="0.5"/><g transform="translate(65.524 -7.448)"><path d="M0,0V25.412" fill="none" stroke="#000" stroke-width="0.5"/></g><path d="M13.821,4.39h49.49V-20.836H13.821Z" transform="translate(18.319 13.563)" fill="none" stroke="#000" stroke-width="0.5"/><path d="M13.746-19.449H89.982v-4.864H13.746Z" transform="translate(5.021 40.399)" fill="#c9c9c9"/><path d="M13.746-21.508h19.9v-2.8h-19.9Z" transform="translate(18.187 41.428)" fill="#184e92"/></g></svg>