<svg xmlns="http://www.w3.org/2000/svg" xmlns:xlink="http://www.w3.org/1999/xlink" width="49.934" height="88.652" viewBox="0 0 49.934 88.652"><defs><clipPath id="a"><path d="M0,60.307H49.934V-28.346H0Z" transform="translate(0 28.346)" fill="none"/></clipPath></defs><g transform="translate(0 28.346)"><path d="M1.054,54.427H44.392V-26.25H1.054Z" transform="translate(2.242 4.459)" fill="#fff"/><g transform="translate(0 -28.346)" clip-path="url(#a)"><g transform="translate(0.001 -0.002)"><path d="M30.743,0H-9.712A4.754,4.754,0,0,0-14.45,4.741V83.914a4.753,4.753,0,0,0,4.738,4.738H30.743a4.756,4.756,0,0,0,4.741-4.738V4.741A4.756,4.756,0,0,0,30.743,0M13.035,84.49H8a1.581,1.581,0,1,1,0-3.162h5.035a1.581,1.581,0,0,1,0,3.162m16.129-8.069H-8.129V10.677H29.163Z" transform="translate(14.45)" fill="#e3e3e3"/></g></g><path d="M2.118-15.746H38.8v-9.11H2.118Z" transform="translate(4.506 7.425)" fill="none" stroke="#000" stroke-width="0.5"/><path d="M3,29.718H34.148V-21.165H3Z" transform="translate(6.391 15.278)" fill="none" stroke="#000" stroke-width="0.5"/><path d="M2.481,38.482H23.019V-27.771H2.481Z" transform="translate(3.803 9.76)" fill="#c9c9c9"/><path d="M3.409-20.565H20.325v-4.567H3.409Z" transform="translate(4.762 63.838)" fill="#184e92"/><g transform="translate(22.469 -16.225)"><path d="M2.355,2.784.428,4.711,0,4.282,1.927,2.355,0,.428.428,0,2.355,1.927,4.282,0l.428.428L2.784,2.355,4.711,4.282l-.428.428Z" transform="translate(-1.648)" fill="#127aad"/></g></g></svg>