<svg width="17" height="17" viewBox="0 0 17 17" fill="none" xmlns="http://www.w3.org/2000/svg">
<g clip-path="url(#clip0_1_58)">
<path d="M12.3002 6.24288C12.3002 5.18202 11.8787 4.1646 11.1286 3.41445C10.3785 2.66431 9.36104 2.24288 8.30017 2.24288C7.23931 2.24288 6.22189 2.66431 5.47174 3.41445C4.7216 4.1646 4.30017 5.18202 4.30017 6.24288C4.30017 10.9095 2.30017 12.2429 2.30017 12.2429H14.3002C14.3002 12.2429 12.3002 10.9095 12.3002 6.24288Z" stroke="#C5C7D3" stroke-width="1.5" stroke-linecap="round" stroke-linejoin="round"/>
<path d="M9.45352 14.9095C9.33631 15.1116 9.16808 15.2793 8.96567 15.3959C8.76326 15.5125 8.53377 15.5738 8.30018 15.5738C8.0666 15.5738 7.83711 15.5125 7.6347 15.3959C7.43229 15.2793 7.26406 15.1116 7.14685 14.9095" stroke="#C5C7D3" stroke-width="1.5" stroke-linecap="round" stroke-linejoin="round"/>
</g>
<defs>
<clipPath id="clip0_1_58">
<rect width="16" height="16" fill="white" transform="translate(0.300171 0.909546)"/>
</clipPath>
</defs>
</svg>
