<svg width="16" height="16" viewBox="0 0 16 16" fill="none" xmlns="http://www.w3.org/2000/svg">
<g clip-path="url(#clip0_16_195)">
<path d="M7.33334 2.66669H2.66668C2.31305 2.66669 1.97392 2.80716 1.72387 3.05721C1.47382 3.30726 1.33334 3.6464 1.33334 4.00002V13.3334C1.33334 13.687 1.47382 14.0261 1.72387 14.2762C1.97392 14.5262 2.31305 14.6667 2.66668 14.6667H12C12.3536 14.6667 12.6928 14.5262 12.9428 14.2762C13.1929 14.0261 13.3333 13.687 13.3333 13.3334V8.66669" stroke="black" stroke-opacity="0.4" stroke-linecap="round" stroke-linejoin="round"/>
<path d="M12.3333 1.66665C12.5986 1.40144 12.9583 1.25244 13.3333 1.25244C13.7084 1.25244 14.0681 1.40144 14.3333 1.66665C14.5986 1.93187 14.7476 2.29158 14.7476 2.66665C14.7476 3.04173 14.5986 3.40144 14.3333 3.66665L8.00001 9.99999L5.33334 10.6667L6.00001 7.99999L12.3333 1.66665Z" stroke="black" stroke-opacity="0.4" stroke-linecap="round" stroke-linejoin="round"/>
</g>
<defs>
<clipPath id="clip0_16_195">
<rect width="16" height="16" fill="white"/>
</clipPath>
</defs>
</svg>
