<svg width="24" height="25" viewBox="0 0 24 25" fill="none" xmlns="http://www.w3.org/2000/svg">
<mask id="mask0_367_37" style="mask-type:alpha" maskUnits="userSpaceOnUse" x="0" y="0" width="24" height="25">
<rect y="0.499969" width="24" height="24" fill="#D9D9D9"/>
</mask>
<g mask="url(#mask0_367_37)">
<path d="M7.875 7.24622L10.5787 3.69797C10.7582 3.4578 10.9714 3.28147 11.2183 3.16897C11.4651 3.0563 11.7257 2.99997 12 2.99997C12.2743 2.99997 12.5349 3.0563 12.7817 3.16897C13.0286 3.28147 13.2417 3.4578 13.4212 3.69797L16.125 7.24622L20.2595 8.64222C20.6545 8.76922 20.9625 8.99314 21.1835 9.31397C21.4047 9.63497 21.5152 9.98947 21.5152 10.3775C21.5152 10.5566 21.4891 10.7352 21.4368 10.9132C21.3844 11.0912 21.2984 11.2618 21.1788 11.425L18.4865 15.1615L18.5865 19.127C18.6032 19.6535 18.4296 20.0972 18.0658 20.4582C17.7021 20.8194 17.2783 21 16.7943 21C16.7801 21 16.6128 20.9781 16.2923 20.9345L12 19.7037L7.70775 20.9345C7.62442 20.9678 7.53842 20.9871 7.44975 20.9922C7.36108 20.9974 7.27975 21 7.20575 21C6.71725 21 6.29225 20.8194 5.93075 20.4582C5.56925 20.0972 5.39683 19.6535 5.4135 19.127L5.5135 15.1365L2.8365 11.425C2.71683 11.2611 2.63083 11.0899 2.5785 10.9112C2.52617 10.7324 2.5 10.5536 2.5 10.375C2.5 9.9978 2.60983 9.64705 2.8295 9.32272C3.04917 8.99839 3.356 8.76839 3.75 8.63272L7.875 7.24622ZM8.802 8.53847L4.23075 10.0615C4.13458 10.0935 4.06892 10.1592 4.03375 10.2587C3.99842 10.3581 4.01283 10.4494 4.077 10.5327L7.023 14.6905L6.9135 19.1577C6.907 19.2667 6.94542 19.3532 7.02875 19.4172C7.11208 19.4814 7.20508 19.4975 7.30775 19.4655L12 18.148L16.6923 19.4905C16.7949 19.5225 16.8879 19.5064 16.9712 19.4422C17.0546 19.3782 17.093 19.2917 17.0865 19.1827L16.977 14.6905L19.923 10.5827C19.9872 10.4994 20.0016 10.4081 19.9663 10.3087C19.9311 10.2092 19.8654 10.1435 19.7693 10.1115L15.198 8.53847L12.2405 4.63472C12.1827 4.55122 12.1025 4.50947 12 4.50947C11.8975 4.50947 11.8173 4.55122 11.7595 4.63472L8.802 8.53847Z" fill="#878787"/>
</g>
</svg>
